<svg width="40" height="40" viewBox="0 0 40 40" fill="none" xmlns="http://www.w3.org/2000/svg">
<path fill-rule="evenodd" clip-rule="evenodd" d="M8.33333 5H15C16.8383 5 18.3333 6.495 18.3333 8.33333V15C18.3333 16.8383 16.8383 18.3333 15 18.3333H8.33333C6.495 18.3333 5 16.8383 5 15V8.33333C5 6.495 6.495 5 8.33333 5ZM25 5H31.6667C33.505 5 35 6.495 35 8.33333V15C35 16.8383 33.505 18.3333 31.6667 18.3333H25C23.1617 18.3333 21.6667 16.8383 21.6667 15V8.33333C21.6667 6.495 23.1617 5 25 5ZM15 21.6667H8.33333C6.495 21.6667 5 23.1617 5 25V31.6667C5 33.505 6.495 35 8.33333 35H15C16.8383 35 18.3333 33.505 18.3333 31.6667V25C18.3333 23.1617 16.8383 21.6667 15 21.6667ZM25 21.6667H31.6667C33.505 21.6667 35 23.1617 35 25V31.6667C35 33.505 33.505 35 31.6667 35H25C23.1617 35 21.6667 33.505 21.6667 31.6667V25C21.6667 23.1617 23.1617 21.6667 25 21.6667Z" fill="white"/>
<mask id="mask0_675_15964" style="mask-type:luminance" maskUnits="userSpaceOnUse" x="5" y="5" width="30" height="30">
<path fill-rule="evenodd" clip-rule="evenodd" d="M8.33333 5H15C16.8383 5 18.3333 6.495 18.3333 8.33333V15C18.3333 16.8383 16.8383 18.3333 15 18.3333H8.33333C6.495 18.3333 5 16.8383 5 15V8.33333C5 6.495 6.495 5 8.33333 5ZM25 5H31.6667C33.505 5 35 6.495 35 8.33333V15C35 16.8383 33.505 18.3333 31.6667 18.3333H25C23.1617 18.3333 21.6667 16.8383 21.6667 15V8.33333C21.6667 6.495 23.1617 5 25 5ZM15 21.6667H8.33333C6.495 21.6667 5 23.1617 5 25V31.6667C5 33.505 6.495 35 8.33333 35H15C16.8383 35 18.3333 33.505 18.3333 31.6667V25C18.3333 23.1617 16.8383 21.6667 15 21.6667ZM25 21.6667H31.6667C33.505 21.6667 35 23.1617 35 25V31.6667C35 33.505 33.505 35 31.6667 35H25C23.1617 35 21.6667 33.505 21.6667 31.6667V25C21.6667 23.1617 23.1617 21.6667 25 21.6667Z" fill="white"/>
</mask>
<g mask="url(#mask0_675_15964)">
</g>
</svg>
