<svg width="40" height="40" viewBox="0 0 40 40" fill="none" xmlns="http://www.w3.org/2000/svg">
<path fill-rule="evenodd" clip-rule="evenodd" d="M21.1917 3.83428L34.04 16.9743C34.65 17.6009 35 18.4743 35 19.3726V33.3326C35 35.1709 33.5883 36.6659 31.8533 36.6659H26.6667V21.6659C26.6667 20.7459 25.9217 19.9993 25 19.9993H15C14.0783 19.9993 13.3333 20.7459 13.3333 21.6659V36.6659H8.14833C6.41333 36.6659 5 35.1709 5 33.3326V19.3726C5 18.4743 5.35 17.6009 5.95833 16.9759L18.8083 3.83428C19.4367 3.19261 20.5633 3.19261 21.1917 3.83428ZM23.3337 34.9999H16.667V23.3333H23.3337V34.9999Z" fill="white"/>
<mask id="mask0_675_15948" style="mask-type:luminance" maskUnits="userSpaceOnUse" x="5" y="3" width="30" height="34">
<path fill-rule="evenodd" clip-rule="evenodd" d="M21.1917 3.83428L34.04 16.9743C34.65 17.6009 35 18.4743 35 19.3726V33.3326C35 35.1709 33.5883 36.6659 31.8533 36.6659H26.6667V21.6659C26.6667 20.7459 25.9217 19.9993 25 19.9993H15C14.0783 19.9993 13.3333 20.7459 13.3333 21.6659V36.6659H8.14833C6.41333 36.6659 5 35.1709 5 33.3326V19.3726C5 18.4743 5.35 17.6009 5.95833 16.9759L18.8083 3.83428C19.4367 3.19261 20.5633 3.19261 21.1917 3.83428ZM23.3337 34.9999H16.667V23.3333H23.3337V34.9999Z" fill="white"/>
</mask>
<g mask="url(#mask0_675_15948)">
</g>
</svg>
