<svg width="40" height="40" viewBox="0 0 40 40" fill="none" xmlns="http://www.w3.org/2000/svg">
<path fill-rule="evenodd" clip-rule="evenodd" d="M32.0557 15.6249H33.8623C35.409 15.6249 36.6673 16.8816 36.6673 18.4283V21.5816C36.6673 23.1233 35.414 24.3749 33.874 24.3749H32.0557C31.8107 24.3749 31.6423 24.5716 31.5673 24.7549C31.5673 24.7556 31.5636 24.7646 31.5592 24.7751C31.5531 24.79 31.5457 24.808 31.5457 24.8099C31.4673 24.9949 31.4473 25.2533 31.6207 25.4266L32.9057 26.7099C33.9973 27.8049 33.9973 29.5816 32.9057 30.6716L30.6723 32.9049C30.144 33.4349 29.4407 33.7249 28.6923 33.7249H28.689C27.9407 33.7249 27.2373 33.4333 26.7073 32.9016L25.4323 31.6199C25.2573 31.4449 24.999 31.4649 24.8157 31.5416C24.5707 31.6433 24.3757 31.8099 24.3757 32.0549V33.8616C24.3757 35.4083 23.119 36.6666 21.5723 36.6666H18.419C16.8773 36.6666 15.6257 35.4133 15.6257 33.8733V32.0549C15.6257 31.8099 15.429 31.6416 15.2457 31.5666C15.0057 31.4683 14.749 31.4483 14.574 31.6199L13.2907 32.9049C12.1973 33.9949 10.419 33.9983 9.32898 32.9049L7.09565 30.6716C6.56565 30.1416 6.27398 29.4383 6.27565 28.6883C6.27565 27.9399 6.56732 27.2366 7.09898 26.7066L8.38065 25.4316C8.55565 25.2566 8.53565 24.9999 8.45898 24.8149C8.35732 24.5699 8.19065 24.3749 7.94565 24.3749H6.13898C4.59232 24.3749 3.33398 23.1183 3.33398 21.5716V18.4183C3.33398 16.8766 4.58732 15.6249 6.12732 15.6249H7.94565C8.19065 15.6249 8.35898 15.4283 8.43398 15.2449C8.53398 15.0049 8.55398 14.7466 8.38065 14.5733L7.09565 13.2899C6.00398 12.1949 6.00398 10.4183 7.09565 9.32825L9.32898 7.09492C9.85732 6.56492 10.5607 6.27492 11.309 6.27492H11.3123C12.0607 6.27492 12.764 6.56659 13.294 7.09825L14.569 8.37992C14.7423 8.55659 15.0007 8.53659 15.1857 8.45825C15.4307 8.35659 15.6257 8.18992 15.6257 7.94492V6.13825C15.6257 4.59159 16.8823 3.33325 18.429 3.33325H21.5823C23.124 3.33325 24.3757 4.58659 24.3757 6.12659V7.94492C24.3757 8.18992 24.5723 8.35825 24.7557 8.43325C24.9973 8.53325 25.254 8.55492 25.4273 8.37992L26.7107 7.09492C27.804 6.00492 29.5823 6.00159 30.6723 7.09492L32.9073 9.32992C33.4373 9.85825 33.7273 10.5616 33.7273 11.3116C33.7273 12.0583 33.434 12.7633 32.904 13.2916L31.6207 14.5683C31.4457 14.7433 31.4657 14.9999 31.5423 15.1849C31.644 15.4299 31.8107 15.6249 32.0557 15.6249ZM20.0007 25.8333C16.784 25.8333 14.1673 23.2166 14.1673 19.9999C14.1673 16.7833 16.784 14.1666 20.0007 14.1666C23.2173 14.1666 25.834 16.7833 25.834 19.9999C25.834 23.2166 23.2173 25.8333 20.0007 25.8333ZM20.0007 17.4999C18.6223 17.4999 17.5007 18.6216 17.5007 19.9999C17.5007 21.3783 18.6223 22.4999 20.0007 22.4999C21.379 22.4999 22.5007 21.3783 22.5007 19.9999C22.5007 18.6216 21.379 17.4999 20.0007 17.4999Z" fill="white"/>
<mask id="mask0_675_15829" style="mask-type:luminance" maskUnits="userSpaceOnUse" x="3" y="3" width="34" height="34">
<path fill-rule="evenodd" clip-rule="evenodd" d="M32.0557 15.6249H33.8623C35.409 15.6249 36.6673 16.8816 36.6673 18.4283V21.5816C36.6673 23.1233 35.414 24.3749 33.874 24.3749H32.0557C31.8107 24.3749 31.6423 24.5716 31.5673 24.7549C31.5673 24.7556 31.5636 24.7646 31.5592 24.7751C31.5531 24.79 31.5457 24.808 31.5457 24.8099C31.4673 24.9949 31.4473 25.2533 31.6207 25.4266L32.9057 26.7099C33.9973 27.8049 33.9973 29.5816 32.9057 30.6716L30.6723 32.9049C30.144 33.4349 29.4407 33.7249 28.6923 33.7249H28.689C27.9407 33.7249 27.2373 33.4333 26.7073 32.9016L25.4323 31.6199C25.2573 31.4449 24.999 31.4649 24.8157 31.5416C24.5707 31.6433 24.3757 31.8099 24.3757 32.0549V33.8616C24.3757 35.4083 23.119 36.6666 21.5723 36.6666H18.419C16.8773 36.6666 15.6257 35.4133 15.6257 33.8733V32.0549C15.6257 31.8099 15.429 31.6416 15.2457 31.5666C15.0057 31.4683 14.749 31.4483 14.574 31.6199L13.2907 32.9049C12.1973 33.9949 10.419 33.9983 9.32898 32.9049L7.09565 30.6716C6.56565 30.1416 6.27398 29.4383 6.27565 28.6883C6.27565 27.9399 6.56732 27.2366 7.09898 26.7066L8.38065 25.4316C8.55565 25.2566 8.53565 24.9999 8.45898 24.8149C8.35732 24.5699 8.19065 24.3749 7.94565 24.3749H6.13898C4.59232 24.3749 3.33398 23.1183 3.33398 21.5716V18.4183C3.33398 16.8766 4.58732 15.6249 6.12732 15.6249H7.94565C8.19065 15.6249 8.35898 15.4283 8.43398 15.2449C8.53398 15.0049 8.55398 14.7466 8.38065 14.5733L7.09565 13.2899C6.00398 12.1949 6.00398 10.4183 7.09565 9.32825L9.32898 7.09492C9.85732 6.56492 10.5607 6.27492 11.309 6.27492H11.3123C12.0607 6.27492 12.764 6.56659 13.294 7.09825L14.569 8.37992C14.7423 8.55659 15.0007 8.53659 15.1857 8.45825C15.4307 8.35659 15.6257 8.18992 15.6257 7.94492V6.13825C15.6257 4.59159 16.8823 3.33325 18.429 3.33325H21.5823C23.124 3.33325 24.3757 4.58659 24.3757 6.12659V7.94492C24.3757 8.18992 24.5723 8.35825 24.7557 8.43325C24.9973 8.53325 25.254 8.55492 25.4273 8.37992L26.7107 7.09492C27.804 6.00492 29.5823 6.00159 30.6723 7.09492L32.9073 9.32992C33.4373 9.85825 33.7273 10.5616 33.7273 11.3116C33.7273 12.0583 33.434 12.7633 32.904 13.2916L31.6207 14.5683C31.4457 14.7433 31.4657 14.9999 31.5423 15.1849C31.644 15.4299 31.8107 15.6249 32.0557 15.6249ZM20.0007 25.8333C16.784 25.8333 14.1673 23.2166 14.1673 19.9999C14.1673 16.7833 16.784 14.1666 20.0007 14.1666C23.2173 14.1666 25.834 16.7833 25.834 19.9999C25.834 23.2166 23.2173 25.8333 20.0007 25.8333ZM20.0007 17.4999C18.6223 17.4999 17.5007 18.6216 17.5007 19.9999C17.5007 21.3783 18.6223 22.4999 20.0007 22.4999C21.379 22.4999 22.5007 21.3783 22.5007 19.9999C22.5007 18.6216 21.379 17.4999 20.0007 17.4999Z" fill="white"/>
</mask>
<g mask="url(#mask0_675_15829)">
</g>
</svg>
